<svg id="Layer_1" data-name="Layer 1" xmlns="http://www.w3.org/2000/svg" width="300" height="100" viewBox="0 0 300 100"><title>CEDRAL_color-logo_R</title><path d="M47.22,64.19a25.64,25.64,0,0,1-14.07-3.8A14,14,0,0,1,26.53,48.3a13.75,13.75,0,0,1,5.29-10.93c3.81-3.14,9.27-4.8,15.24-4.8,8.11,0,14.4,2.82,19.2,8.78l.33.33-7.45,2.65L59,44.16A17.25,17.25,0,0,0,46.39,39c-7.12,0-11.92,3.81-11.92,9.44s5,9.43,12.59,9.43a15.23,15.23,0,0,0,12.08-5.3l.17-.16,6.78,3.64-.33.33c-5.13,5.3-10.76,7.78-18.54,7.78" fill="#596275"/><polygon points="253.68 54.43 253.68 33.4 245.73 33.4 245.73 63.37 253.68 63.37 253.68 54.43 253.68 54.43" fill="#596275"/><polygon points="161.63 63.37 169.57 63.37 169.57 33.4 161.63 33.4 161.63 63.37" fill="#596275"/><path d="M191.26,52.27c4.31-1.32,6.46-4.47,6.46-8.94,0-6-4.64-9.93-11.59-9.93H172.22v6.29H185.3c2.81,0,4.47,1.33,4.47,3.31,0,2.32-1.66,3.48-4.47,3.48H172.06v6.29h10.43l7.45,10.6h8.94l-7.62-11.1Z" fill="#596275"/><polygon points="117.92 63.37 125.86 63.37 125.86 33.4 117.92 33.4 117.92 63.37" fill="#596275"/><path d="M138.11,33.4h-9.6v6.29h10.1c5.46,0,9.6,3.64,9.6,8.78a7.9,7.9,0,0,1-1.82,4.8,10.54,10.54,0,0,1-7.78,3.64h-10.1v6.46h10.6A19.39,19.39,0,0,0,151,59.56a13.21,13.21,0,0,0,5.46-10.93c0-9.27-7.28-15.23-18.38-15.23" fill="#596275"/><polygon points="72.22 39.69 110.14 39.69 110.14 33.4 72.22 33.4 72.22 39.69" fill="#596275"/><polygon points="72.22 63.37 110.14 63.37 110.14 57.08 72.22 57.08 72.22 63.37" fill="#596275"/><polygon points="72.22 51.45 110.14 51.45 110.14 45.15 72.22 45.15 72.22 51.45" fill="#596275"/><polygon points="276.52 57.08 256.33 57.08 256.33 63.37 276.52 63.37 276.52 57.08" fill="#596275"/><polygon points="226.53 33.4 218.41 33.4 222.88 41.68 222.88 41.68 227.68 50.78 215.93 50.78 220.23 42.67 216.26 35.22 201.19 63.37 209.31 63.37 212.62 57.08 231.16 57.08 234.64 63.37 242.59 63.37 226.53 33.4" fill="#596275"/><path d="M271.53,32.57a4.86,4.86,0,0,1,2.49.68,4.73,4.73,0,0,1,1.83,1.83,4.86,4.86,0,0,1,.68,2.49A5,5,0,0,1,274,41.9a5,5,0,0,1-6.84-1.82,5,5,0,0,1-.66-2.51,4.88,4.88,0,0,1,.67-2.5A4.94,4.94,0,0,1,269,33.24,4.86,4.86,0,0,1,271.53,32.57Zm0,.83a4.17,4.17,0,1,0,0,8.34,4.16,4.16,0,0,0,2.93-7.11A4,4,0,0,0,271.53,33.4Zm-1.13,6.86h-.87V34.88h1.86a4.1,4.1,0,0,1,1.39.16,1.28,1.28,0,0,1,.65.52,1.31,1.31,0,0,1,.25.77,1.41,1.41,0,0,1-.43,1.05,1.71,1.71,0,0,1-1.11.47,1.75,1.75,0,0,1,.58.42,6.57,6.57,0,0,1,.67.94l.65,1H273l-.47-.84a4.84,4.84,0,0,0-.8-1.18,1.16,1.16,0,0,0-.8-.27h-.51Zm0-4.65v1.62h1.06a1.89,1.89,0,0,0,1-.2.78.78,0,0,0,0-1.24,2.21,2.21,0,0,0-1.06-.18Z" fill="#596275"/></svg>